<svg width="20" height="18" viewBox="0 0 20 18" fill="none" xmlns="http://www.w3.org/2000/svg">
<path d="M8.73033 1.14822L9.63635 0.276751C10.02 -0.0922503 10.6403 -0.0922503 11.0199 0.276751L18.9537 7.90409C19.3373 8.27309 19.3373 8.86977 18.9537 9.23485L11.0199 16.8661C10.6362 17.2351 10.0159 17.2351 9.63635 16.8661L8.73033 15.9946C8.34262 15.6217 8.35078 15.0132 8.74665 14.6482L13.6645 10.1416H1.93517C1.39237 10.1416 0.955688 9.72161 0.955688 9.19952V7.94334C0.955688 7.42124 1.39237 7.00121 1.93517 7.00121H13.6645L8.74665 2.49468C8.3467 2.12961 8.33854 1.52115 8.73033 1.14822Z" fill="white"/>
</svg>
