<svg width="55" height="55" viewBox="0 0 55 55" fill="none" xmlns="http://www.w3.org/2000/svg">
<path d="M27.4998 0.416626C12.5498 0.416626 0.416504 12.55 0.416504 27.5C0.416504 42.45 12.5498 54.5833 27.4998 54.5833C42.4498 54.5833 54.5832 42.45 54.5832 27.5C54.5832 12.55 42.4498 0.416626 27.4998 0.416626ZM27.4998 49.1666C15.5561 49.1666 5.83317 39.4437 5.83317 27.5C5.83317 15.5562 15.5561 5.83329 27.4998 5.83329C39.4436 5.83329 49.1665 15.5562 49.1665 27.5C49.1665 39.4437 39.4436 49.1666 27.4998 49.1666ZM39.9311 15.5291L22.0832 33.377L15.0686 26.3895L11.2498 30.2083L22.0832 41.0416L43.7498 19.375L39.9311 15.5291Z" fill="white"/>
</svg>
