<svg width="22" height="22" viewBox="0 0 22 22" fill="none" xmlns="http://www.w3.org/2000/svg">
<path d="M18.6611 3.17871C16.6152 1.12793 13.8906 0 10.9951 0C5.01855 0 0.155273 4.86328 0.155273 10.8398C0.155273 12.749 0.65332 14.6143 1.60059 16.2598L0.0625 21.875L5.80957 20.3662C7.3916 21.2305 9.17383 21.6846 10.9902 21.6846H10.9951C16.9668 21.6846 21.9375 16.8213 21.9375 10.8447C21.9375 7.94922 20.707 5.22949 18.6611 3.17871ZM10.9951 19.8584C9.37402 19.8584 7.78711 19.4238 6.40527 18.6035L6.07812 18.4082L2.66992 19.3018L3.57812 15.9766L3.36328 15.6348C2.45996 14.1992 1.98633 12.5439 1.98633 10.8398C1.98633 5.87402 6.0293 1.83105 11 1.83105C13.4072 1.83105 15.668 2.76855 17.3672 4.47266C19.0664 6.17676 20.1113 8.4375 20.1064 10.8447C20.1064 15.8154 15.9609 19.8584 10.9951 19.8584ZM15.9365 13.1104C15.668 12.9736 14.335 12.3193 14.0859 12.2314C13.8369 12.1387 13.6563 12.0947 13.4756 12.3682C13.2949 12.6416 12.7773 13.2471 12.6162 13.4326C12.46 13.6133 12.2988 13.6377 12.0303 13.501C10.4385 12.7051 9.39355 12.0801 8.34375 10.2783C8.06543 9.7998 8.62207 9.83398 9.13965 8.79883C9.22754 8.61816 9.18359 8.46191 9.11523 8.3252C9.04688 8.18848 8.50488 6.85547 8.28027 6.31348C8.06055 5.78613 7.83594 5.85938 7.66992 5.84961C7.51367 5.83984 7.33301 5.83984 7.15234 5.83984C6.97168 5.83984 6.67871 5.9082 6.42969 6.17676C6.18066 6.4502 5.48242 7.10449 5.48242 8.4375C5.48242 9.77051 6.4541 11.0596 6.58594 11.2402C6.72266 11.4209 8.49512 14.1553 11.2148 15.332C12.9336 16.0742 13.6074 16.1377 14.4668 16.0107C14.9893 15.9326 16.0684 15.3564 16.293 14.7217C16.5176 14.0869 16.5176 13.5449 16.4492 13.4326C16.3857 13.3105 16.2051 13.2422 15.9365 13.1104Z" fill="black"/>
</svg>
